<svg xmlns="http://www.w3.org/2000/svg" viewBox="0 0 64 64" width="64" height="64" role="img" aria-label="ebb">
<rect width="64" height="64" rx="16" fill="#18181b"></rect>
<path d="M26.98 36.38L41.40 36.38L41.40 34.74C41.40 28.27 37.63 23.81 32.18 23.81C26.57 23.81 22.60 28.52 22.60 35.15C22.60 41.91 26.78 46.75 32.63 46.75C36.89 46.75 40.25 44.21 40.99 40.36L36.81 40.36C36.24 41.91 34.64 42.85 32.68 42.85C29.44 42.85 27.35 40.40 26.98 36.38ZM32.18 27.58C34.85 27.58 36.77 29.71 37.02 32.94L27.11 32.94C27.72 29.62 29.60 27.58 32.18 27.58Z" fill="#a78bfa"></path>
</svg>