<svg xmlns="http://www.w3.org/2000/svg" viewBox="0 0 256 256" width="256" height="256" role="img" aria-label="ebb">
<rect width="256" height="256" rx="56.32" fill="#18181b"></rect>
<path d="M99.18 141.58L146.97 141.58L146.97 136.65C146.97 115.75 134.72 101.38 117.28 101.38C99.31 101.38 86.40 116.68 86.40 138.25C86.40 160.22 99.85 175.92 118.75 175.92C132.33 175.92 143.11 167.80 145.64 155.69L133.52 155.69C131.53 161.28 125.94 164.61 118.88 164.61C107.57 164.61 100.11 155.69 99.18 141.58ZM117.28 112.42C126.74 112.42 133.52 120.01 134.32 131.46L99.58 131.46C101.44 119.75 108.10 112.42 117.28 112.42Z" fill="#fafafa"></path>
<rect x="153.63" y="81.41" width="15.97" height="93.18" rx="4.79" fill="#7c3aed"></rect>
</svg>