<svg xmlns="http://www.w3.org/2000/svg" viewBox="8.76 -88.8 230.64 90" width="230.64" height="90" role="img" aria-label="ebb">
<path d="M20.28-29.76L63.36-29.76L63.36-34.20C63.36-53.04 52.32-66 36.60-66C20.40-66 8.76-52.20 8.76-32.76C8.76-12.96 20.88 1.20 37.92 1.20C50.16 1.20 59.88-6.12 62.16-17.04L51.24-17.04C49.44-12 44.40-9 38.04-9C27.84-9 21.12-17.04 20.28-29.76ZM36.60-56.04C45.12-56.04 51.24-49.20 51.96-38.88L20.64-38.88C22.32-49.44 28.32-56.04 36.60-56.04ZM81.96 0L92.88 0L92.88-11.76L93.36-11.76C97.20-3.36 103.80 1.20 112.44 1.20C127.68 1.20 138.60-12.84 138.60-32.40C138.60-51.96 127.68-66 112.44-66C104.16-66 97.80-61.92 93.96-54.36L93.48-54.36L93.48-88.80L81.96-88.80ZM110.16-9.24C100.20-9.24 93.24-18.84 93.24-32.40C93.24-45.96 100.20-55.56 110.16-55.56C120.12-55.56 127.08-46.08 127.08-32.40C127.08-18.72 120.12-9.24 110.16-9.24ZM153.96 0L164.88 0L164.88-11.76L165.36-11.76C169.20-3.36 175.80 1.20 184.44 1.20C199.68 1.20 210.60-12.84 210.60-32.40C210.60-51.96 199.68-66 184.44-66C176.16-66 169.80-61.92 165.96-54.36L165.48-54.36L165.48-88.80L153.96-88.80ZM182.16-9.24C172.20-9.24 165.24-18.84 165.24-32.40C165.24-45.96 172.20-55.56 182.16-55.56C192.12-55.56 199.08-46.08 199.08-32.40C199.08-18.72 192.12-9.24 182.16-9.24Z" fill="#18181b"></path>
<rect x="220.2" y="-88.8" width="19.2" height="88.8" rx="2.69" fill="#7c3aed"></rect>
</svg>