<svg xmlns="http://www.w3.org/2000/svg" viewBox="0 0 64 64" width="64" height="64" role="img" aria-label="ebb">
<rect width="64" height="64" rx="16" fill="#18181b"/>
<path transform="translate(10.25 51.85) scale(0.0358 -0.0358)" fill="#a78bfa" d="M632 -23Q463 -23 341.5 48Q220 119 154.5 248Q89 377 89 552Q89 725 153.5 855Q218 985 336.5 1058.5Q455 1132 615 1132Q717 1132 809.5 1099Q902 1066 973.5 997Q1045 928 1085.5 821.5Q1126 715 1126 568L1126 486L212 486L212 663L997 663L875 611Q875 705 846 776.5Q817 848 759.5 888Q702 928 616 928Q530 928 470 887.5Q410 847 378.5 779.5Q347 712 347 629L347 507Q347 401 383 328Q419 255 484 218Q549 181 635 181Q692 181 738.5 197.5Q785 214 819 246.5Q853 279 870 326L1109 277Q1082 187 1017 119.5Q952 52 854.5 14.5Q757 -23 632 -23Z"/>
</svg>
